P2
# comment
3672 1
255
255 
255 
255 
255 
255 
255 
255 
255 
255 
255 
255 
255 
255 
255 
255 
255 
255 
255 
255 
255 
255 
255 
255 
255 
255 
255 
255 
255 
255 
255 
255 
255 
255 
255 
255 
255 
255 
255 
255 
255 
255 
255 
255 
255 
255 
255 
255 
255 
255 
255 
255 
255 
255 
255 
255 
255 
255 
255 
255 
255 
255 
255 
255 
255 
255 
255 
255 
255 
255 
255 
255 
255 
255 
255 
255 
255 
255 
255 
255 
255 
255 
255 
255 
255 
255 
255 
255 
255 
255 
255 
255 
255 
255 
255 
255 
255 
255 
255 
255 
255 
255 
255 
255 
255 
255 
255 
255 
255 
255 
255 
255 
255 
255 
255 
255 
255 
255 
255 
255 
255 
255 
255 
255 
255 
255 
255 
255 
255 
255 
255 
255 
255 
255 
255 
255 
255 
255 
255 
255 
255 
255 
255 
255 
255 
255 
255 
255 
255 
255 
255 
255 
255 
255 
255 
255 
255 
255 
255 
255 
255 
255 
255 
255 
255 
255 
255 
255 
255 
255 
255 
255 
255 
255 
255 
255 
255 
255 
255 
255 
255 
255 
255 
255 
255 
255 
255 
255 
255 
255 
255 
255 
255 
255 
255 
255 
255 
255 
255 
255 
255 
255 
255 
255 
255 
255 
255 
255 
255 
255 
255 
255 
255 
255 
255 
255 
255 
255 
255 
255 
255 
255 
255 
255 
255 
255 
255 
255 
255 
255 
255 
255 
255 
255 
255 
255 
255 
255 
255 
255 
255 
255 
255 
255 
255 
255 
255 
255 
255 
255 
255 
255 
255 
255 
255 
255 
255 
255 
255 
255 
255 
255 
255 
255 
255 
255 
255 
255 
255 
255 
255 
255 
255 
255 
255 
255 
255 
255 
255 
255 
255 
255 
255 
255 
255 
255 
255 
255 
255 
255 
255 
255 
255 
255 
255 
255 
255 
255 
255 
255 
255 
255 
255 
255 
255 
255 
255 
255 
255 
255 
255 
255 
255 
255 
255 
255 
255 
255 
255 
255 
255 
255 
255 
255 
255 
255 
255 
255 
255 
255 
255 
255 
255 
255 
255 
255 
255 
255 
255 
255 
255 
255 
255 
255 
255 
255 
255 
255 
255 
255 
255 
255 
255 
255 
255 
255 
255 
255 
255 
255 
255 
255 
255 
255 
255 
255 
255 
255 
255 
255 
255 
255 
255 
255 
255 
255 
255 
255 
255 
255 
255 
255 
255 
255 
255 
255 
255 
255 
255 
255 
255 
255 
255 
255 
255 
255 
255 
255 
255 
255 
255 
255 
255 
255 
255 
255 
255 
255 
255 
255 
255 
255 
255 
255 
255 
255 
255 
255 
255 
255 
255 
255 
255 
255 
255 
255 
255 
255 
255 
255 
255 
255 
255 
255 
255 
255 
255 
255 
255 
255 
255 
255 
255 
255 
255 
255 
255 
255 
255 
255 
255 
255 
255 
255 
255 
255 
255 
255 
255 
255 
255 
255 
255 
255 
255 
255 
255 
255 
255 
255 
255 
255 
255 
255 
255 
255 
255 
255 
255 
255 
255 
255 
255 
255 
255 
255 
255 
255 
255 
255 
255 
255 
255 
255 
255 
255 
255 
255 
255 
255 
255 
255 
255 
255 
255 
255 
255 
255 
255 
255 
255 
255 
255 
255 
255 
255 
255 
255 
255 
255 
255 
255 
255 
255 
255 
255 
255 
255 
255 
255 
255 
255 
255 
255 
255 
255 
255 
255 
255 
255 
255 
255 
255 
255 
255 
255 
255 
255 
255 
255 
255 
255 
255 
255 
255 
255 
255 
255 
255 
255 
255 
255 
255 
255 
255 
255 
255 
255 
255 
255 
255 
255 
255 
255 
255 
255 
255 
255 
255 
255 
255 
255 
255 
255 
255 
255 
255 
255 
255 
255 
255 
255 
255 
255 
255 
255 
255 
255 
255 
255 
255 
255 
255 
255 
255 
255 
255 
255 
255 
255 
255 
255 
255 
255 
255 
255 
255 
255 
255 
255 
255 
255 
255 
255 
255 
255 
255 
255 
255 
255 
255 
255 
255 
255 
255 
255 
255 
255 
255 
255 
255 
255 
255 
255 
255 
255 
255 
255 
255 
255 
255 
255 
255 
255 
255 
255 
255 
255 
255 
255 
255 
255 
255 
255 
255 
255 
255 
255 
255 
255 
255 
255 
255 
255 
255 
255 
255 
255 
255 
255 
255 
255 
255 
255 
255 
255 
255 
255 
255 
255 
255 
255 
255 
255 
255 
255 
255 
255 
255 
255 
255 
255 
255 
255 
255 
255 
255 
255 
255 
255 
255 
255 
255 
255 
255 
255 
255 
255 
255 
255 
255 
255 
255 
255 
255 
255 
255 
255 
255 
255 
255 
255 
255 
255 
255 
255 
255 
255 
255 
255 
255 
255 
255 
255 
255 
255 
255 
255 
255 
255 
255 
255 
255 
255 
255 
255 
255 
255 
255 
255 
255 
255 
255 
255 
255 
255 
255 
255 
255 
255 
255 
255 
255 
255 
255 
255 
255 
255 
255 
255 
255 
255 
255 
255 
255 
255 
255 
255 
255 
255 
255 
255 
255 
255 
255 
255 
255 
255 
255 
255 
255 
255 
255 
255 
255 
255 
255 
255 
255 
255 
255 
255 
255 
255 
255 
255 
255 
255 
255 
255 
255 
255 
255 
255 
255 
255 
255 
255 
255 
255 
255 
255 
255 
255 
255 
255 
255 
255 
255 
255 
255 
255 
255 
255 
255 
255 
255 
255 
255 
255 
255 
255 
255 
255 
255 
255 
255 
255 
255 
255 
255 
255 
255 
255 
255 
255 
255 
255 
255 
255 
255 
255 
255 
255 
255 
255 
255 
255 
255 
255 
255 
255 
255 
255 
255 
255 
255 
255 
255 
255 
255 
255 
255 
255 
255 
255 
255 
255 
255 
255 
255 
255 
255 
255 
255 
255 
255 
255 
255 
255 
255 
255 
255 
255 
255 
255 
255 
255 
255 
255 
255 
255 
255 
255 
255 
255 
255 
255 
255 
255 
255 
255 
255 
255 
255 
255 
255 
255 
255 
255 
255 
255 
255 
255 
255 
255 
255 
255 
255 
255 
255 
255 
255 
255 
255 
255 
255 
255 
255 
255 
255 
255 
255 
255 
255 
255 
255 
255 
255 
255 
255 
255 
255 
255 
255 
255 
255 
255 
255 
255 
255 
255 
255 
255 
255 
255 
255 
255 
255 
255 
255 
255 
255 
255 
255 
255 
255 
255 
255 
255 
255 
255 
255 
255 
255 
255 
255 
255 
255 
255 
255 
255 
255 
255 
255 
255 
255 
255 
255 
255 
255 
255 
255 
255 
255 
255 
255 
255 
255 
255 
255 
255 
255 
255 
255 
255 
255 
255 
255 
255 
255 
255 
255 
255 
255 
255 
255 
255 
255 
255 
255 
255 
255 
255 
255 
255 
255 
255 
255 
255 
255 
255 
255 
255 
255 
255 
255 
255 
255 
255 
255 
255 
255 
255 
255 
255 
255 
255 
255 
255 
255 
255 
255 
255 
255 
255 
255 
255 
255 
255 
255 
255 
255 
255 
255 
255 
255 
255 
255 
255 
255 
255 
255 
255 
255 
255 
255 
255 
255 
255 
255 
255 
255 
255 
255 
255 
255 
255 
255 
255 
255 
255 
255 
255 
255 
255 
255 
255 
255 
255 
255 
255 
255 
255 
255 
255 
255 
255 
255 
255 
255 
255 
255 
255 
255 
255 
255 
255 
255 
255 
255 
255 
255 
255 
255 
255 
255 
255 
255 
255 
255 
255 
255 
255 
255 
255 
255 
255 
255 
255 
255 
255 
255 
255 
255 
255 
255 
255 
255 
255 
255 
255 
255 
255 
255 
255 
255 
255 
255 
255 
255 
255 
255 
255 
255 
255 
255 
255 
255 
255 
255 
255 
255 
255 
255 
255 
255 
255 
255 
255 
255 
255 
255 
255 
255 
255 
255 
255 
255 
255 
255 
255 
255 
255 
255 
255 
255 
255 
255 
255 
255 
255 
255 
255 
255 
255 
255 
255 
255 
255 
255 
255 
255 
255 
255 
255 
255 
255 
255 
255 
255 
255 
255 
255 
255 
255 
255 
255 
255 
255 
255 
255 
255 
255 
255 
255 
255 
255 
255 
255 
255 
255 
255 
255 
255 
255 
255 
255 
255 
255 
255 
255 
255 
255 
255 
255 
255 
255 
255 
255 
255 
255 
255 
255 
255 
255 
255 
255 
255 
255 
255 
255 
255 
255 
255 
255 
255 
255 
255 
255 
255 
255 
255 
255 
255 
255 
255 
255 
255 
255 
255 
255 
255 
255 
255 
255 
255 
255 
255 
255 
255 
255 
255 
255 
255 
255 
255 
255 
255 
255 
255 
255 
255 
255 
255 
255 
255 
255 
255 
255 
255 
255 
255 
255 
255 
255 
255 
255 
255 
255 
255 
255 
255 
255 
255 
255 
255 
255 
255 
255 
255 
255 
255 
255 
255 
255 
255 
255 
255 
255 
255 
255 
255 
255 
255 
255 
255 
255 
255 
255 
255 
255 
255 
255 
255 
255 
255 
255 
255 
255 
255 
255 
255 
255 
255 
255 
255 
255 
255 
255 
255 
255 
255 
255 
255 
255 
255 
255 
255 
255 
255 
255 
255 
255 
255 
255 
255 
255 
255 
255 
255 
255 
255 
255 
255 
255 
255 
255 
255 
255 
255 
255 
255 
255 
255 
255 
255 
255 
255 
255 
255 
255 
255 
255 
255 
255 
255 
255 
255 
255 
255 
255 
255 
255 
255 
255 
255 
255 
255 
255 
255 
255 
255 
255 
255 
255 
255 
255 
255 
255 
255 
255 
255 
255 
255 
255 
255 
255 
255 
255 
255 
255 
255 
255 
255 
255 
255 
255 
255 
255 
255 
255 
255 
255 
255 
255 
255 
255 
255 
255 
255 
255 
255 
255 
255 
255 
255 
255 
255 
255 
255 
255 
255 
255 
255 
255 
255 
255 
255 
255 
255 
255 
255 
255 
255 
255 
255 
255 
255 
255 
255 
255 
255 
255 
255 
255 
255 
255 
255 
255 
255 
255 
255 
255 
255 
255 
255 
255 
255 
255 
255 
255 
255 
255 
255 
255 
255 
255 
255 
255 
255 
255 
255 
255 
255 
255 
255 
255 
255 
255 
255 
255 
255 
255 
255 
255 
255 
255 
255 
255 
255 
255 
255 
255 
255 
255 
255 
255 
255 
255 
255 
255 
255 
255 
255 
255 
255 
255 
255 
255 
255 
255 
255 
255 
255 
255 
255 
255 
255 
255 
255 
255 
255 
255 
255 
255 
255 
255 
255 
255 
255 
255 
255 
255 
255 
255 
255 
255 
255 
255 
255 
255 
255 
255 
255 
255 
255 
255 
255 
255 
255 
255 
255 
255 
255 
255 
255 
255 
255 
255 
255 
255 
255 
255 
255 
255 
255 
255 
255 
255 
255 
255 
255 
255 
255 
255 
255 
255 
255 
255 
255 
255 
255 
255 
255 
255 
255 
255 
255 
255 
255 
255 
255 
255 
255 
255 
255 
255 
255 
255 
255 
255 
255 
255 
255 
255 
255 
255 
255 
255 
255 
255 
255 
255 
255 
255 
255 
255 
255 
255 
255 
255 
255 
255 
255 
255 
255 
255 
255 
255 
255 
255 
255 
255 
255 
255 
255 
255 
255 
255 
255 
255 
255 
255 
255 
255 
255 
255 
255 
255 
255 
255 
255 
255 
255 
255 
255 
255 
255 
255 
255 
255 
255 
255 
255 
255 
255 
255 
255 
255 
255 
255 
255 
255 
255 
255 
255 
255 
255 
255 
255 
255 
255 
255 
255 
255 
255 
255 
255 
255 
255 
255 
255 
255 
255 
255 
255 
255 
255 
255 
255 
255 
255 
255 
255 
255 
255 
255 
255 
255 
255 
255 
255 
255 
255 
255 
255 
255 
255 
255 
255 
255 
255 
255 
255 
255 
255 
255 
255 
255 
255 
255 
255 
255 
255 
255 
255 
255 
255 
255 
255 
255 
255 
255 
255 
255 
255 
255 
255 
255 
255 
255 
255 
255 
255 
255 
255 
255 
255 
255 
255 
255 
255 
255 
255 
255 
255 
255 
255 
255 
255 
255 
255 
255 
255 
255 
255 
255 
255 
255 
255 
255 
255 
255 
255 
255 
255 
255 
255 
255 
255 
255 
255 
255 
255 
255 
255 
255 
255 
255 
255 
255 
255 
255 
255 
255 
255 
255 
255 
255 
255 
255 
255 
255 
255 
255 
255 
255 
255 
255 
255 
255 
255 
255 
255 
255 
255 
255 
255 
255 
255 
255 
255 
255 
255 
255 
255 
255 
255 
255 
254 
253 
252 
249 
240 
223 
197 
171 
152 
142 
135 
130 
127 
125 
122 
119 
117 
114 
112 
111 
109 
107 
105 
104 
103 
102 
101 
101 
101 
100 
98 
97 
96 
98 
101 
101 
100 
97 
96 
95 
93 
92 
90 
89 
87 
86 
84 
83 
83 
83 
82 
77 
74 
73 
72 
72 
73 
75 
75 
75 
76 
77 
77 
77 
77 
77 
78 
80 
83 
85 
84 
84 
84 
84 
86 
88 
90 
91 
92 
95 
99 
102 
103 
104 
105 
106 
108 
109 
109 
108 
108 
108 
109 
109 
110 
110 
110 
110 
110 
111 
111 
109 
108 
107 
106 
106 
105 
104 
105 
106 
108 
109 
109 
109 
109 
109 
109 
109 
109 
108 
109 
109 
110 
110 
111 
110 
109 
111 
113 
113 
111 
110 
110 
111 
111 
111 
110 
110 
110 
111 
111 
111 
110 
110 
110 
112 
113 
114 
113 
110 
108 
107 
108 
111 
114 
117 
117 
114 
110 
108 
109 
111 
113 
114 
114 
112 
111 
110 
110 
109 
109 
111 
113 
112 
112 
111 
111 
110 
110 
110 
111 
111 
111 
111 
111 
112 
112 
112 
111 
111 
111 
111 
111 
109 
108 
109 
110 
110 
108 
108 
108 
107 
107 
107 
108 
108 
108 
108 
108 
108 
108 
108 
108 
109 
109 
109 
109 
109 
109 
107 
106 
105 
106 
106 
107 
107 
106 
106 
107 
109 
110 
110 
111 
111 
110 
109 
108 
109 
109 
109 
110 
109 
109 
109 
109 
108 
108 
108 
109 
110 
109 
109 
110 
111 
112 
113 
113 
112 
111 
110 
110 
109 
109 
110 
110 
109 
108 
108 
109 
109 
110 
111 
112 
113 
112 
111 
111 
111 
110 
110 
110 
111 
112 
113 
113 
112 
111 
110 
110 
110 
110 
111 
110 
109 
108 
108 
109 
111 
112 
113 
113 
113 
113 
114 
114 
115 
115 
114 
114 
115 
115 
116 
116 
115 
112 
108 
108 
110 
110 
109 
108 
107 
107 
108 
109 
110 
110 
109 
109 
109 
110 
112 
113 
114 
115 
115 
115 
116 
117 
119 
119 
120 
121 
121 
120 
119 
117 
116 
117 
117 
117 
116 
114 
113 
114 
115 
115 
115 
114 
113 
112 
112 
112 
112 
110 
109 
109 
109 
108 
107 
105 
104 
105 
106 
106 
105 
104 
104 
104 
105 
106 
106 
106 
106 
107 
108 
108 
108 
107 
107 
106 
106 
106 
106 
106 
107 
109 
109 
108 
107 
106 
105 
105 
106 
106 
106 
104 
103 
102 
103 
103 
104 
106 
107 
107 
106 
105 
104 
104 
104 
105 
105 
104 
104 
104 
104 
105 
106 
107 
108 
108 
107 
107 
107 
107 
107 
106 
106 
105 
103 
101 
100 
101 
102 
104 
106 
109 
111 
111 
112 
114 
115 
116 
116 
116 
116 
118 
119 
121 
122 
123 
124 
124 
123 
123 
123 
122 
121 
119 
119 
117 
116 
116 
116 
115 
114 
113 
114 
115 
116 
116 
116 
116 
117 
117 
118 
117 
116 
115 
115 
115 
115 
116 
116 
117 
117 
117 
117 
117 
118 
118 
119 
118 
118 
118 
119 
119 
119 
119 
118 
118 
118 
118 
118 
118 
119 
120 
120 
120 
121 
121 
121 
121 
121 
121 
121 
120 
120 
120 
120 
120 
120 
120 
120 
121 
121 
121 
120 
119 
118 
118 
119 
120 
121 
121 
121 
121 
121 
122 
122 
122 
122 
121 
120 
118 
117 
117 
118 
118 
118 
118 
118 
118 
118 
118 
120 
121 
121 
121 
120 
120 
119 
119 
118 
118 
117 
118 
119 
120 
120 
119 
119 
119 
119 
119 
118 
118 
119 
120 
120 
121 
121 
122 
122 
121 
121 
122 
122 
123 
123 
123 
123 
123 
124 
124 
125 
126 
126 
125 
124 
124 
123 
123 
124 
125 
126 
126 
126 
126 
125 
125 
125 
126 
126 
126 
126 
125 
125 
125 
125 
126 
125 
124 
124 
124 
124 
124 
123 
124 
124 
125 
125 
125 
125 
124 
123 
122 
123 
123 
122 
122 
122 
122 
123 
123 
122 
122 
122 
122 
122 
122 
123 
125 
126 
125 
124 
122 
122 
120 
117 
112 
107 
104 
102 
104 
109 
114 
117 
117 
116 
115 
115 
116 
118 
119 
120 
122 
123 
123 
123 
122 
122 
122 
123 
122 
121 
118 
117 
116 
117 
118 
117 
115 
113 
113 
114 
115 
115 
115 
115 
114 
115 
116 
115 
114 
114 
113 
112 
111 
110 
109 
108 
108 
109 
110 
110 
111 
110 
110 
111 
112 
114 
114 
113 
113 
113 
113 
114 
114 
114 
115 
115 
115 
115 
115 
115 
115 
115 
114 
113 
112 
110 
110 
110 
110 
109 
109 
109 
110 
110 
111 
112 
112 
112 
112 
112 
113 
114 
114 
114 
116 
117 
117 
115 
113 
112 
112 
113 
113 
111 
110 
109 
108 
106 
105 
103 
102 
102 
103 
103 
103 
102 
102 
103 
103 
102 
102 
102 
102 
102 
103 
105 
106 
106 
105 
104 
104 
104 
104 
104 
104 
104 
104 
105 
105 
105 
104 
104 
105 
106 
107 
107 
107 
107 
107 
107 
108 
110 
110 
110 
111 
111 
111 
111 
110 
110 
110 
109 
109 
109 
109 
109 
110 
112 
113 
113 
111 
110 
110 
111 
111 
111 
111 
111 
110 
110 
109 
108 
107 
107 
107 
107 
106 
106 
105 
105 
105 
106 
107 
107 
108 
108 
108 
109 
109 
110 
112 
112 
110 
110 
111 
111 
110 
110 
110 
110 
109 
108 
108 
107 
107 
107 
107 
107 
106 
105 
104 
104 
103 
104 
105 
105 
105 
105 
105 
105 
106 
107 
109 
109 
110 
110 
110 
110 
109 
108 
108 
108 
108 
109 
109 
108 
108 
108 
107 
106 
106 
106 
106 
106 
106 
106 
107 
107 
107 
107 
108 
108 
107 
105 
105 
105 
106 
106 
106 
106 
106 
106 
105 
105 
105 
105 
105 
105 
106 
108 
110 
110 
110 
109 
109 
110 
110 
111 
111 
111 
112 
113 
113 
113 
112 
112 
112 
112 
112 
112 
112 
113 
113 
113 
113 
113 
112 
113 
113 
112 
111 
111 
111 
111 
111 
110 
110 
111 
112 
113 
114 
115 
116 
115 
113 
112 
112 
113 
113 
113 
113 
113 
112 
112 
112 
113 
114 
115 
115 
116 
116 
116 
115 
115 
116 
116 
117 
117 
117 
117 
117 
118 
118 
118 
118 
118 
118 
117 
117 
118 
118 
118 
119 
119 
118 
117 
117 
118 
119 
120 
120 
120 
121 
123 
123 
121 
117 
112 
109 
108 
109 
110 
110 
111 
111 
112 
113 
112 
112 
111 
112 
112 
112 
113 
112 
112 
110 
110 
112 
115 
118 
119 
119 
119 
118 
116 
112 
110 
109 
109 
109 
110 
110 
109 
108 
109 
110 
109 
108 
106 
105 
104 
105 
105 
106 
107 
108 
108 
109 
110 
111 
112 
112 
111 
109 
106 
104 
103 
103 
103 
102 
100 
99 
98 
98 
99 
101 
102 
103 
103 
103 
102 
101 
99 
99 
99 
100 
100 
101 
102 
103 
104 
105 
107 
107 
108 
108 
109 
110 
110 
110 
110 
109 
109 
109 
110 
111 
110 
109 
108 
105 
103 
102 
103 
105 
107 
109 
112 
116 
118 
118 
119 
121 
123 
122 
121 
119 
117 
116 
115 
114 
113 
112 
111 
111 
110 
111 
110 
109 
107 
105 
103 
104 
105 
105 
105 
104 
103 
101 
98 
99 
101 
103 
104 
105 
107 
108 
108 
108 
107 
106 
105 
106 
107 
108 
109 
110 
111 
112 
113 
114 
113 
112 
111 
110 
109 
108 
107 
106 
105 
105 
105 
105 
104 
104 
104 
105 
105 
105 
106 
109 
111 
113 
116 
119 
119 
119 
119 
119 
118 
115 
112 
110 
109 
108 
107 
108 
110 
112 
113 
113 
114 
115 
116 
116 
117 
117 
118 
117 
117 
116 
117 
116 
116 
115 
115 
116 
116 
117 
117 
116 
115 
116 
117 
119 
121 
122 
122 
122 
122 
122 
122 
122 
122 
122 
122 
122 
123 
123 
124 
125 
126 
127 
128 
128 
127 
126 
126 
125 
123 
122 
122 
122 
123 
123 
123 
122 
122 
122 
121 
120 
119 
118 
117 
116 
115 
114 
113 
113 
112 
111 
110 
108 
107 
107 
108 
109 
108 
108 
107 
107 
106 
107 
108 
109 
109 
109 
109 
109 
110 
110 
110 
110 
108 
107 
106 
105 
104 
104 
103 
102 
101 
101 
102 
103 
104 
104 
103 
103 
102 
101 
101 
100 
101 
102 
103 
104 
105 
105 
105 
105 
104 
106 
109 
113 
115 
116 
116 
115 
115 
115 
115 
114 
112 
109 
106 
103 
102 
102 
103 
105 
105 
103 
101 
98 
97 
96 
96 
97 
98 
99 
101 
103 
105 
107 
109 
111 
112 
112 
111 
109 
107 
105 
103 
102 
101 
102 
102 
101 
99 
98 
96 
94 
90 
87 
86 
88 
92 
99 
106 
109 
110 
113 
116 
117 
116 
116 
117 
117 
117 
117 
117 
117 
118 
118 
118 
116 
113 
110 
106 
102 
97 
94 
95 
97 
99 
101 
101 
103 
106 
111 
114 
116 
119 
122 
125 
126 
125 
122 
117 
111 
108 
107 
108 
111 
113 
113 
112 
111 
111 
112 
112 
111 
110 
110 
109 
109 
109 
109 
109 
110 
110 
110 
110 
110 
108 
105 
103 
101 
101 
102 
102 
101 
99 
95 
89 
85 
83 
82 
83 
85 
87 
90 
93 
96 
99 
102 
106 
110 
112 
113 
112 
112 
111 
111 
112 
113 
115 
115 
114 
111 
108 
107 
107 
107 
106 
106 
106 
106 
106 
106 
105 
104 
102 
101 
101 
101 
100 
99 
98 
97 
96 
94 
93 
94 
94 
95 
96 
98 
100 
101 
102 
103 
103 
104 
104 
105 
106 
107 
107 
108 
108 
108 
109 
109 
109 
109 
110 
110 
111 
111 
110 
109 
108 
107 
107 
107 
106 
104 
103 
102 
101 
100 
100 
100 
100 
100 
101 
103 
104 
105 
106 
107 
109 
109 
110 
111 
111 
111 
110 
110 
110 
110 
110 
112 
114 
115 
116 
116 
116 
117 
117 
118 
118 
118 
119 
121 
122 
123 
123 
123 
122 
122 
121 
122 
122 
123 
124 
124 
123 
121 
120 
119 
119 
119 
118 
118 
117 
116 
115 
113 
113 
113 
113 
113 
113 
112 
112 
111 
110 
108 
106 
104 
103 
102 
103 
106 
110 
114 
117 
118 
117 
117 
116 
117 
117 
117 
116 
116 
115 
115 
115 
115 
116 
116 
118 
119 
121 
122 
124 
125 
125 
125 
126 
126 
125 
125 
124 
124 
125 
126 
127 
128 
130 
132 
132 
133 
133 
132 
130 
128 
126 
125 
124 
124 
124 
125 
126 
127 
128 
128 
128 
126 
125 
129 
146 
186 
